<?xml version="1.0" standalone="no"?>
<!DOCTYPE svg PUBLIC "-//W3C//DTD SVG 20010904//EN"
 "http://www.w3.org/TR/2001/REC-SVG-20010904/DTD/svg10.dtd">
<svg version="1.0" xmlns="http://www.w3.org/2000/svg"
 width="1080.000000pt" height="1080.000000pt" viewBox="0 0 1080.000000 1080.000000"
 preserveAspectRatio="xMidYMid meet">
<metadata>
Created by potrace 1.14, written by Peter Selinger 2001-2017
</metadata>
<g transform="translate(0.000000,1080.000000) scale(0.100000,-0.100000)"
fill="#000000" stroke="none">
<path d="M4020 8390 l0 -1500 1000 0 1000 0 0 1500 0 1500 -1000 0 -1000 0 0
-1500z"/>
<path d="M1050 4890 l0 -4000 1000 0 1000 0 0 4000 0 4000 -1000 0 -1000 0 0
-4000z"/>
<path d="M6990 7890 l0 -1000 1500 0 1500 0 0 1000 0 1000 -1500 0 -1500 0 0
-1000z"/>
<path d="M7275 5805 c-359 -49 -679 -162 -970 -343 -653 -406 -1066 -1071
-1155 -1857 -14 -132 -9 -432 10 -578 121 -898 709 -1653 1539 -1976 141 -55
344 -112 449 -126 20 -2 47 -7 59 -9 135 -28 542 -29 713 -2 782 122 1446 608
1806 1321 104 207 199 492 229 690 24 157 33 274 33 430 0 210 -11 321 -49
508 -56 279 -173 571 -325 814 -380 605 -1006 1018 -1699 1118 -22 4 -51 9
-65 12 -60 12 -478 11 -575 -2z"/>
</g>
</svg>
